<?xml version="1.0" encoding="UTF-8"?>
<svg id="Capa_17" data-name="Capa 17" xmlns="http://www.w3.org/2000/svg" width="1400" height="1034" viewBox="0 0 1400 1034">
  <defs>
    <style>
      .cls-1 {
        fill: #ff7d01;
      }
    </style>
  </defs>
  <path class="cls-1" d="M321.5,823.06c-26.92,0-48.75-21.83-48.75-48.75v-139.62c0-26.92,21.83-48.75,48.75-48.75h287.54c17.98-.31,109.45-8.15,109.45-132s-89.49-142.72-112.09-145.48h-159.09v187.27c0,26.92-21.83,48.75-48.75,48.75s-48.75-21.83-48.75-48.75v-236.03c0-26.92,21.83-48.75,48.75-48.75h210.48c1.35,0,2.69.05,4.04.16,70.18,5.84,202.92,64.1,202.92,242.83,0,71.06-20.84,127.9-61.93,168.91-59.24,59.1-136.81,60.95-145.12,60.6h-238.69v90.87c0,26.92-21.83,48.75-48.75,48.75Z"/>
</svg>